<?xml version="1.0" encoding="utf-8"?>
<!-- Generator: Adobe Illustrator 18.0.0, SVG Export Plug-In . SVG Version: 6.00 Build 0)  -->
<!DOCTYPE svg PUBLIC "-//W3C//DTD SVG 1.1//EN" "http://www.w3.org/Graphics/SVG/1.1/DTD/svg11.dtd">
<svg version="1.1" id="Layer_1" xmlns="http://www.w3.org/2000/svg" xmlns:xlink="http://www.w3.org/1999/xlink" x="0px" y="0px"
	 viewBox="0 190.2800293 841.8900146 214" enable-background="new 0 190.2800293 841.8900146 214" xml:space="preserve">
<path fill="#333333" d="M218.6017761,259.0913391v-0.7999878c2.3999176-0.3999634,4.2998657-0.999939,7.2997589-2.1999207
	c11.7996063-4.4998474,14.4995117-15.7994843,14.4995117-29.9989929c0-19.7993469-9.9996643-28.9990387-25.8991241-31.1989594
	v-1.5999451c5.0998383,0,15.6994781,0.7999725,20.7993011,1.5999451
	c24.2991791,3.599884,35.2988129,14.9994965,35.2988129,31.7989349c0,14.9994965-9.9996643,24.699173-23.3992157,29.3990173
	v0.3999634c10.3996429,18.5993958,24.8991547,34.3988647,36.0988007,46.1984863
	c6.0997925,7.2997437,15.8994751,12.9995422,22.399231,13.9995117v1.5999756
	c-5.6997986,0.3999634-20.399292,0.3999634-30.9989624,0.3999634c-14.8994751-0.2000122-23.3992004-8.699707-32.3988953-20.2993164
	C233.9012604,287.4903564,225.5015411,273.2908325,218.6017761,259.0913391 M204.1022644,293.1901855
	c0,16.9994507,7.099762,21.0993042,20.5993195,22.899231v1.5999451h-67.0977631v-1.5999451
	c12.5995789-1.7999268,17.0994263-6.4997864,17.0994263-22.899231v-75.497467
	c0-16.3994446-4.4998474-21.0993042-17.0994263-22.899231v-1.5999451h46.4984436V293.1901855z"/>
<path fill="#333333" d="M437.9944153,274.8907776l-0.3999634,37.8987427
	c-9.199707,2.9998779-26.499115,5.2998047-41.9985962,6.2997742v-1.7999268
	c3.2998657-0.3999939,6.4997864-1.3999634,9.3996582-2.3999329c16.4994507-6.6997681,27.4990845-22.899231,31.1989746-40.0986633
	h1.7999268V274.8907776z M435.4945068,233.1921844c-3.4998779-16.3994446-14.2994995-30.7989655-31.1989746-37.0987549
	c-3.2998657-1.1999512-6.6997681-2.1999207-10.5996399-2.5999146v-1.799942
	c17.4994202,0.3999786,33.3988647,2.9999084,43.1985474,6.4997864l0.3999939,34.9988251H435.4945068z M387.3961182,319.2893066
	c-42.5985718-1.5999756-69.0976868-29.7990112-69.0976868-65.1978302c0-38.6987,36.8987427-60.2979736,67.0977478-62.1979065
	v1.5999451c-2.8999023,0.3999786-8.5997314,2.1999207-11.7995911,4.0998688
	c-12.5995789,7.6997375-23.1992493,23.2992249-23.1992493,55.6981354c0,28.1990509,7.2997437,51.5982513,24.6991882,60.2979889
	c4.099884,2.1999207,8.3997192,3.7998657,12.3995972,4.0998535v1.5999451H387.3961182z"/>
<path fill="#333333" d="M557.1904297,193.2935333h38.2987061l1.5999146,40.0986481h-1.7999268
	c-3.4998779-12.9995728-9.9996338-23.6992035-18.9993286-29.7990112c-6.6998291-4.6998444-12.3995972-7.2997589-19.1994019-8.699707
	v-1.5999298H557.1904297z M549.4906616,293.1901855c0,16.3994446,4.4998779,21.0993042,17.0994263,22.899231v1.5999451h-63.3978577
	v-1.5999451c11.9995422-1.7999268,16.8994446-5.8997803,16.8994446-22.899231v-99.9966431h29.3989868V293.1901855z
	 M512.3919678,194.8934631c-6.6997986,1.3999481-12.1996155,3.9998627-18.9993896,8.699707
	c-8.9996948,6.4997864-15.4994812,16.7994385-19.1993713,29.7990112H472.39328l1.5999756-40.0986633h38.2987366v1.5999451
	H512.3919678z"/>
<path fill="#333333" d="M645.4874878,217.7927094c0-16.3994446-4.4998779-21.0993042-17.0994263-22.899231v-1.5999451h63.3978882
	v1.5999451c-11.9995728,1.799942-16.8994141,5.8997955-16.8994141,22.899231v75.4974518
	c0,16.9994202,4.8998413,21.0993042,16.8994141,22.899231v1.5999451h-63.3978882v-1.5999451
	c12.5995483-1.7999268,17.0994263-6.4997864,17.0994263-22.899231V217.7927094z"/>
<path fill="#333333" d="M841.8809204,274.8907776l-0.4000244,37.8987427
	c-9.199707,2.9998779-26.4990845,5.2998047-41.9985962,6.2997742v-1.7999268
	c3.2998657-0.3999939,6.4998169-1.3999634,9.3997192-2.3999329c16.4994507-6.6997681,27.4990845-22.899231,31.1989746-40.0986633
	h1.7999268V274.8907776z M839.3809814,233.1921844c-3.4998779-16.3994446-14.2994995-30.7989655-31.1989746-37.0987549
	c-3.2998657-1.1999512-6.6997681-2.1999207-10.5996094-2.5999146v-1.799942
	c17.4994507,0.3999786,33.3989258,2.9999084,43.1986084,6.4997864l0.3999634,34.9988251H839.3809814z M791.2825928,319.2893066
	c-42.5985718-1.5999756-69.0976562-29.7990112-69.0976562-65.1978302c0-38.6987,36.8987427-60.2979736,67.0977173-62.1979065
	v1.5999451c-2.8999634,0.3999786-8.5996704,2.1999207-11.7996216,4.0998688
	c-12.5995483,7.6997375-23.1992188,23.2992249-23.1992188,55.6981354c0,28.1990509,7.2997437,51.5982513,24.6991577,60.2979889
	c4.0998535,2.1999207,8.3997803,3.7998657,12.3996582,4.0998535v1.5999451H791.2825928z"/>
<path fill="#333333" d="M35.707901,297.1900635c0-1.2999573,0.0999947-2.5999146,0.2999878-3.8998718
	c0,0,0.6999779-9.9996643,7.2997551-16.1994629c6.4997826-6.1997986,10.99963-12.1996155,10.99963-20.5993347v-28.4990387
	c-11.3996162,27.8990631-25.2991505,61.9979401-25.4991455,62.4979095
	c-2.8999023,6.4997864-5.69981,11.4996338-11.0996284,16.8994446c-5.2998228,5.2998047-10.3996506,7.8997192-17.6994076,9.0997009
	v1.5999451h29.499012h6.2997913C35.707901,315.1894531,35.707901,297.3900452,35.707901,297.1900635"/>
<path fill="#333333" d="M115.4052277,293.3901672L74.8065948,192.0935669h-6.0998001
	c0,0.3000031-6.3997841,16.1994629-14.0995216,35.0988312h6.5997772h6.8997688v29.298996
	c0,8.3997192,4.4998474,14.3995361,10.9996338,20.5993347c6.4997787,6.1997986,7.2997589,16.1994629,7.2997589,16.1994629
	c0.1999893,1.2999573,0.2999878,2.5999146,0.2999878,3.8998718c0,0.2000122,0,17.9993896,0,20.7992859h12.2995911h39.9986649
	v-1.5999451C129.5047607,314.9894409,121.905014,308.7896423,115.4052277,293.3901672"/>
<g>
	<path fill="#333333" d="M171.6033478,374.3874512h2.6999054l6.3997803,22.7992249h0.1000061l6.5997925-22.7992249h1.8999176
		l6.6997833,22.5992432h0.0999908l6.0998077-22.6992493h2.6999054l-7.7997437,27.3990784h-2.0999298l-6.6997681-22.0992737
		h-0.1000061l-6.3997803,22.0992737h-1.999939L171.6033478,374.3874512z"/>
	<path fill="#333333" d="M220.1017303,374.3874512h2.5999146v27.3990784h-2.5999146V374.3874512z"/>
	<path fill="#333333" d="M241.0010223,374.3874512h2.5999146l15.6994781,22.9992371h0.1000061v-22.9992371h2.5999146v27.3990784
		h-2.5999146l-15.6994629-22.9992371h-0.1000061v22.9992371h-2.5999298V374.3874512z"/>
	<path fill="#333333" d="M279.6997375,374.3874512h17.9993896v2.3999023h-15.299469v9.699707h13.79953v2.3999023h-13.79953
		v10.5996399h16.1994629v2.3999329h-18.7993469v-27.4990845H279.6997375z"/>
	<path fill="#333333" d="M356.3971558,389.5869446c-0.2000122,2.3999329-0.6999817,4.8998413-1.999939,6.9997864
		c1.0999756,1.3999329,2.3999023,3.1998901,4.3998413,3.2998657v2.3999023c-2.6999207,0-4.1998596-1.5999451-5.8997803-3.4998779
		c-2.1999512,2.3999329-4.3998718,3.4998779-7.599762,3.4998779c-4.6998596,0-8.5997314-3.099884-8.5997314-7.8997192
		c0-4.0998535,3.4999084-7.2997437,6.9997864-9.0997009c-1.2999573-1.999939-2.1999512-3.3998718-2.1999512-5.8997803
		c0-3.3999023,2.1999512-5.3998413,5.599823-5.3998413c3.0999146,0,5.2998047,1.7999573,5.2998047,4.9998474
		c0,3.3998718-2.6999207,5.3998108-5.1998291,7.099762c1.7999268,2.9999084,3.7998657,5.7998047,5.6998291,8.6997375
		c0.6999817-1.5999756,0.9999695-3.2998962,1.1999512-4.9998474h2.2999573V389.5869446z M339.4977112,394.2867737
		c0,3.4998779,2.8999023,5.7998047,5.8998108,5.7998047c2.4999084,0,4.5998535-1.1999817,6.2997742-3.1999207
		c-2.4999084-2.9998779-4.4998474-6.3997803-6.5997925-9.7996521
		C342.2976074,388.8869629,339.4977112,390.7868958,339.4977112,394.2867737z M347.0974731,376.0874023
		c-1.999939,0-3.1998901,1.2999573-3.1998901,3.2998962c0,1.5999451,1.1999512,3.2998657,1.9999084,4.599823
		c1.8999329-1.1999512,4.1998901-2.4999084,4.1998901-5.099823
		C350.0973816,377.0873718,348.7973938,376.0874023,347.0974731,376.0874023z"/>
	<path fill="#333333" d="M398.6957397,393.5868225c0.2000122,4.5998535,3.1999207,6.5997925,7.6997681,6.5997925
		c4.2998352,0,7.4997559-2.1999512,7.4997559-5.599823c0-8.3997192-16.3994446-3.1999207-16.3994446-13.8995361
		c0-4.9998169,4.8998108-6.9997559,8.699707-6.9997559c4.6998596,0,8.1997375,1.499939,9.7996521,6.0997925l-2.3999023,1.2999573
		c-1.0999756-3.599884-3.8998718-4.9998474-7.3997498-4.9998474c-2.7998962,0-6.0997925,1.5999451-6.0997925,4.5998535
		c0,8.0997314,16.3994446,2.8999023,16.3994446,13.4995422c0,5.3998108-3.7998657,8.3997192-10.0996704,8.3997192
		c-5.4998169,0-9.2996826-1.999939-10.2996521-7.599762L398.6957397,393.5868225z"/>
	<path fill="#333333" d="M433.2945557,374.3874512h13.4995728c5.3998108,0,7.099762,3.9998779,7.099762,7.4997559
		c0,5.3998108-3.3998718,7.4997559-8.2997131,7.4997559h-9.5997009v12.3995667h-2.5999146v-27.3990784H433.2945557z
		 M435.9944763,386.98703h8.6997375c4.4998474,0,6.6997986-1.6999512,6.6997986-5.099823
		c0-1.5999451-0.2999878-5.0998535-5.599823-5.0998535h-9.7997131V386.98703z"/>
	<path fill="#333333" d="M469.6933594,374.3874512h2.5999451v27.3990784h-2.5999451V374.3874512z"/>
	<path fill="#333333" d="M489.9926758,374.3874512h12.0996094c5.6998291,0,7.9997253,3.7998657,7.9997253,7.599762
		c0,4.6998596-3.0999146,7.1997681-8.0997314,7.4997253l8.7996826,12.2995911h-3.2998657l-8.6997375-12.1996155h-6.1997986
		v12.1996155h-2.599884V374.3874512z M492.5925903,387.1870422h8.0997314c5.599823,0,6.7997742-2.7998962,6.7997742-5.1998291
		c0-3.1999207-1.6999512-5.1998596-6.3997803-5.1998596h-8.5997314v10.3996887H492.5925903z"/>
	<path fill="#333333" d="M526.1914673,374.3874512h2.5999146v27.3990784h-2.5999146V374.3874512z"/>
	<path fill="#333333" d="M544.2908325,374.3874512h19.7993164v2.3999023h-8.5996704v25.0991821h-2.5998535v-25.0991821h-8.5997314
		v-2.3999023H544.2908325z"/>
	<path fill="#333333" d="M580.8896484,393.5868225c0.2000122,4.5998535,3.1998901,6.5997925,7.6997681,6.5997925
		c4.2998657,0,7.4997559-2.1999512,7.4997559-5.599823c0-8.3997192-16.3994751-3.1999207-16.3994751-13.8995361
		c0-4.9998169,4.8998413-6.9997559,8.699707-6.9997559c4.6998291,0,8.1997681,1.499939,9.7996826,6.0997925l-2.3999634,1.2999573
		c-1.0999146-3.599884-3.8999023-4.9998474-7.3997803-4.9998474c-2.7998657,0-6.0997925,1.5999451-6.0997925,4.5998535
		c0,8.0997314,16.3994751,2.8999023,16.3994751,13.4995422c0,5.3998108-3.7998047,8.3997192-10.0996094,8.3997192
		c-5.4998169,0-9.2996826-1.999939-10.2996216-7.599762L580.8896484,393.5868225z"/>
	<path fill="#333333" d="M658.2870483,392.8868408c0,6.2997742-3.9998779,9.5996704-10.0996704,9.5996704
		c-6.0997314,0-10.0996094-3.2998657-10.0996094-9.5996704v-18.4993896h2.5998535v18.4993896
		c0,5.3998108,3.3999023,7.2997437,7.4997559,7.2997437s7.4997559-1.8999329,7.4997559-7.2997437v-18.4993896h2.5999146V392.8868408
		z"/>
	<path fill="#333333" d="M676.1864624,401.7865295h-2.8999634v-4.4998474h2.8999634V401.7865295z"/>
	<path fill="#333333" d="M691.7858887,393.5868225c0.2000122,4.5998535,3.1999512,6.5997925,7.6997681,6.5997925
		c4.2998657,0,7.4997559-2.1999512,7.4997559-5.599823c0-8.3997192-16.3994751-3.1999207-16.3994751-13.8995361
		c0-4.9998169,4.8998413-6.9997559,8.699707-6.9997559c4.6998901,0,8.1997681,1.499939,9.7996826,6.0997925l-2.3999634,1.2999573
		c-1.0999146-3.599884-3.8999023-4.9998474-7.3997803-4.9998474c-2.7998657,0-6.0997314,1.5999451-6.0997314,4.5998535
		c0,8.0997314,16.3994751,2.8999023,16.3994751,13.4995422c0,5.3998108-3.7998657,8.3997192-10.0996704,8.3997192
		c-5.4998169,0-9.2996826-1.999939-10.2996216-7.599762L691.7858887,393.5868225z"/>
	<path fill="#333333" d="M726.3847656,401.7865295h-2.8999023v-4.4998474h2.8999023V401.7865295z"/>
</g>
</svg>
