<?xml version="1.0" encoding="utf-8"?>
<!-- Generator: Adobe Illustrator 18.0.0, SVG Export Plug-In . SVG Version: 6.00 Build 0)  -->
<!DOCTYPE svg PUBLIC "-//W3C//DTD SVG 1.1//EN" "http://www.w3.org/Graphics/SVG/1.1/DTD/svg11.dtd">
<svg version="1.1" id="Layer_1" xmlns="http://www.w3.org/2000/svg" xmlns:xlink="http://www.w3.org/1999/xlink" x="0px" y="0px"
	 viewBox="0 0 300 77" enable-background="new 0 0 300 77" xml:space="preserve">
<path fill="#FFFFFF" d="M78.1981125,25.3061981v-0.2819233c0.8470001-0.1415787,1.481636-0.3527107,2.541008-0.7762127
	c4.0946808-1.6244564,5.0124817-5.6483498,5.0124817-10.7316132c0-7.059196-3.4588089-10.3764181-8.9655762-11.1538773V1.7987319
	c1.764801,0,5.4359741,0.2819222,7.2007675,0.5638396c8.4004898,1.2717505,12.2132492,5.3651857,12.2132492,11.3662472
	c0,5.3651848-3.4600372,8.8239956-8.1185608,10.5192432v0.1403389c3.6003799,6.6369362,8.6128616,12.2840424,12.4951706,16.5203018
	c2.1175079,2.611805,5.5067596,4.6585236,7.7658539,5.0112343v0.5650826
	c-1.9771652,0.1415825-7.0604324,0.1415825-10.7316132,0.1415825c-5.1528168-0.0707893-8.1173325-3.1060944-11.2234268-7.2715683
	C83.4925079,35.4727287,80.5975418,30.3894615,78.1981125,25.3061981 M73.1856384,37.5194473
	c0,6.0718498,2.4702225,7.5534859,7.129982,8.1893578v0.5650826h-23.225544v-0.5650826
	c4.3766022-0.6358719,5.9290314-2.3298798,5.9290314-8.1893578v-26.967514c0-5.859477-1.5524292-7.5534878-5.9290314-8.1893625
	V1.7987319h16.095562V37.5194473z"/>
<path fill="#FFFFFF" d="M155.4072418,30.953804l-0.1403503,13.5545425
	c-3.1781311,1.0593758-9.177948,1.9063797-14.5431366,2.2590942v-0.6358757
	c1.1289368-0.1403389,2.2590942-0.4930496,3.2476959-0.8470039c5.7178802-2.3994293,9.5294037-8.188118,10.7999115-14.3307571
	H155.4072418z M154.5602264,16.0579567c-1.199707-5.859478-4.9416809-11.0122948-10.8011627-13.2713861
	c-1.1289215-0.4235015-2.3298798-0.7774544-3.6711731-0.9177926V1.2329025
	c6.0718536,0.141584,11.5773773,1.0593767,14.966629,2.3298812l0.1415863,12.4951725H154.5602264z M137.8995972,46.8382301
	c-14.7542725-0.5650864-23.9322205-10.659584-23.9322205-23.2963352c0-13.8377075,12.7783356-21.5327797,23.2267914-22.238203
	v0.5650855c-0.9885864,0.1403382-2.9657593,0.7762132-4.0946808,1.4828782
	c-4.3778534,2.7521415-8.0477753,8.3297005-8.0477753,19.9070759c0,10.0957413,2.541008,18.4254417,8.5420685,21.5315361
	c1.4108429,0.7774544,2.8937225,1.3412971,4.3058167,1.4828758V46.8382301z"/>
<path fill="#FFFFFF" d="M197.952774,1.7978649h13.2726288l0.5650787,14.3307571h-0.6358643
	c-1.1997223-4.6585207-3.4588165-8.4712801-6.5648956-10.6595774c-2.329895-1.6940105-4.3070526-2.6118031-6.6369476-3.1060989
	V1.7978649z M195.2701721,37.5198212c0,5.859478,1.5536804,7.5534821,5.9302826,8.1893578v0.5638428h-21.9550476v-0.5638428
	c4.1654816-0.6358757,5.8594818-2.1187515,5.8594818-8.1893578V1.7978649h10.1652832V37.5198212z M182.4223175,2.3629458
	c-2.329895,0.4942958-4.2362823,1.4120884-6.5661469,3.1060989c-3.1061096,2.3298812-5.3639526,6.0010567-6.6356964,10.6595774
	h-0.6346283l0.5638275-14.3307571h13.272644V2.3629458z"/>
<path fill="#FFFFFF" d="M229.7696075,10.5523043c0-5.8594775-1.5536804-7.553483-5.9302826-8.1893587V1.7978601h21.9550476
	v0.5650856c-4.1642456,0.6358752-5.8594818,2.1175072-5.8594818,8.1893587v26.967514
	c0,6.0706062,1.6952362,7.5534859,5.8594818,8.1893616v0.563839H223.839325v-0.563839
	c4.3766022-0.6358757,5.9302826-2.3298836,5.9302826-8.1893616V10.5523043z"/>
<path fill="#FFFFFF" d="M299,30.953804l-0.1416016,13.5545425c-3.1768799,1.0593758-9.1766968,1.9063797-14.5419006,2.2590942
	v-0.6358757c1.1289673-0.1403389,2.2590942-0.4930496,3.2477112-0.8470039
	c5.7178955-2.3994293,9.5294189-8.188118,10.7998962-14.3307571H299z M298.1529846,16.0579567
	c-1.199707-5.859478-4.9416809-11.0122948-10.801178-13.2713861c-1.1289062-0.4235015-2.3298645-0.7774544-3.6711731-0.9177926
	V1.2329025c6.0718689,0.141584,11.5773926,1.0593767,14.9666443,2.3298812l0.141571,12.4951725H298.1529846z
	 M281.4923401,46.8382301c-14.7542419-0.5650864-23.9321899-10.659584-23.9321899-23.2963352
	c0-13.8377075,12.7783203-21.5327797,23.2267761-22.238203v0.5650855c-0.9885864,0.1403382-2.9657593,0.7762132-4.094696,1.4828782
	c-4.3778381,2.7521415-8.04776,8.3297005-8.04776,19.9070759c0,10.0957413,2.5409851,18.4254417,8.5420532,21.5315361
	c1.4108582,0.7774544,2.8937378,1.3412971,4.3058167,1.4828758V46.8382301z"/>
<path fill="#FFFFFF" d="M13.6446152,38.9263153c0-0.4719353,0.0372572-0.9351807,0.1080484-1.3860054
	c0,0,0.2558393-3.5830002,2.5149298-5.7936554c2.2590923-2.2094116,3.8077927-4.3703918,3.8077927-7.3671932V14.178154
	c-3.9319859,9.9752693-8.7681046,22.1649246-8.8277178,22.3201675c-0.9885855,2.3087692-1.9821386,4.1220016-3.8338728,6.0333519
	c-1.8355889,1.9063797-3.6003876,2.824173-6.1413994,3.2476768v0.5650826h10.2025461h2.173398
	C13.6470985,45.353363,13.6446152,38.9995918,13.6446152,38.9263153"/>
<path fill="#FFFFFF" d="M41.2307358,37.5901108L27.1818981,1.3751072h-2.1187515c0,0.11674-2.2205906,5.7849588-4.8808308,12.531188
	h5.0671215v10.4732885c0,2.9968071,1.549942,5.1577816,3.8090324,7.3671951
	c2.2590923,2.2094173,2.513689,5.7936573,2.513689,5.7936573c0.0720348,0.4508247,0.1092911,0.9140701,0.1092911,1.3860054
	c0,0.0732727-0.003727,6.4270477-0.003727,7.4181137h17.6715813v-0.5650826
	C46.1016273,45.285183,43.4898224,43.0968781,41.2307358,37.5901108"/>
<g>
	<path fill="#FFFFFF" d="M64.7939682,74.9204941h3.284935c1.5499344,0,2.1634598-0.9078598,2.1634598-1.8157196
		c0-1.2022018-0.8817825-2.030571-2.4838791-2.030571h-2.9645157V74.9204941z M64.7939682,70.2470703h2.9111023
		c1.3884964,0,2.1907883-0.5613632,2.1907883-1.6033478c0-1.174881-0.6942444-1.5747833-2.110054-1.5747833h-2.9918365V70.2470703z
		 M63.8861084,66.2405624h4.0859833c2.5112,0,2.8316269,1.6964951,2.8316269,2.2305298
		c0,1.2419434-0.5340347,1.8964462-1.7362366,2.1224747v0.0273209c1.402153,0.1328888,2.0827408,1.2282867,2.0827408,2.4838867
		c0,1.3748245-0.9078598,2.6440887-3.0849838,2.6440887h-4.1791306V66.2405624z"/>
	<polygon fill="#FFFFFF" points="77.8799286,66.2409363 77.8799286,75.7480011 84.3839722,75.7480011 84.3839722,74.9208679 
		78.789032,74.9208679 78.789032,71.2621078 83.5829239,71.2621078 83.5829239,70.4337311 78.789032,70.4337311 
		78.789032,67.0680695 84.1032944,67.0680695 84.1032944,66.2409363 	"/>
	<polygon fill="#FFFFFF" points="97.256073,66.2409363 94.2244949,74.3061066 91.2475586,66.2409363 90.2726364,66.2409363 
		93.824585,75.7480011 94.6256332,75.7480011 98.1900101,66.2409363 	"/>
	<polygon fill="#FFFFFF" points="104.3995972,66.2409363 104.3995972,75.7480011 110.9023972,75.7480011 110.9023972,74.9208679 
		105.3074493,74.9208679 105.3074493,71.2621078 110.1013412,71.2621078 110.1013412,70.4337311 105.3074493,70.4337311 
		105.3074493,67.0680695 110.6217117,67.0680695 110.6217117,66.2409363 	"/>
	<g>
		<path fill="#FFFFFF" d="M118.5671616,70.7003784h2.8179703c1.9225235,0,2.3497543-0.9749298,2.3497543-1.8157196
			c0-1.1090546-0.5874405-1.8157196-2.2032089-1.8157196h-2.9645157V70.7003784z M117.6593094,66.2405624h4.2064514
			c1.9635086,0,2.7769775,1.3090057,2.7769775,2.6440964c0,1.629425-1.0680695,2.4838791-2.7906342,2.6043472l3.0452347,4.2598572
			h-1.1487885l-3.0179214-4.2201157h-2.1634674v4.2201157h-0.9078522V66.2405624z"/>
	</g>
	<path fill="#FFFFFF" d="M134.4174347,67.4555588l1.7635498,4.6870804h-3.5792694L134.4174347,67.4555588z M134.0970154,66.2409363
		l-3.8723755,9.5070648h0.9351807l1.1338959-2.8577118h4.1803741l1.0680695,2.8577118h0.9749298l-3.6860809-9.5070648H134.0970154z"
		/>
	<g>
		<path fill="#FFFFFF" d="M151.3899384,68.8577042c-0.46698-1.4158096-1.2816925-2.0293274-2.6577606-2.0293274
			c-2.4168243,0-3.4451447,2.1895447-3.4451447,4.1667099c0,1.9759293,0.9476013,4.1654739,3.2054596,4.1654739
			c2.0827179,0,2.8701172-1.6555099,2.8701172-3.057663v-0.5203705h-3.5246277v-0.8283768h4.3269196v4.9938431h-0.8022919
			v-1.3748245h-0.0260773c-0.4545593,1.1612167-1.6691742,1.6157684-2.8440399,1.6157684
			c-2.7782288,0-4.1133118-2.244194-4.1133118-4.9938507c0-2.57827,1.3487396-4.9950867,4.2859344-4.9950867
			c1.803299,0,2.8986969,0.7873917,3.5929413,2.3907394L151.3899384,68.8577042z"/>
	</g>
	<polygon fill="#FFFFFF" points="159.1479645,66.2409363 159.1479645,75.7480011 165.6507568,75.7480011 165.6507568,74.9208679 
		160.0558167,74.9208679 160.0558167,71.2621078 164.8497009,71.2621078 164.8497009,70.4337311 160.0558167,70.4337311 
		160.0558167,67.0680695 165.3700867,67.0680695 165.3700867,66.2409363 	"/>
	<g>
		<path fill="#FFFFFF" d="M188.1910248,68.8577042c-0.46698-1.4158096-1.2817078-2.0293274-2.6577759-2.0293274
			c-2.4168091,0-3.4451294,2.1895447-3.4451294,4.1667099c0,1.9759293,0.9476013,4.1654739,3.2054443,4.1654739
			c2.0827332,0,2.8713684-1.6555099,2.8713684-3.057663v-0.5203705h-3.5258636v-0.8283768h4.3269196v4.9938431h-0.8010559
			v-1.3748245h-0.0273285c-0.4545441,1.1612167-1.6691589,1.6157684-2.8440399,1.6157684
			c-2.7782135,0-4.1132965-2.244194-4.1132965-4.9938507c0-2.57827,1.3487396-4.9950867,4.2859344-4.9950867
			c1.803299,0,2.8986969,0.7873917,3.592926,2.3907394L188.1910248,68.8577042z"/>
		<path fill="#FFFFFF" d="M196.856781,70.7003784h2.8179779c1.9225006,0,2.3497467-0.9749298,2.3497467-1.8157196
			c0-1.1090546-0.5874481-1.8157196-2.2032013-1.8157196h-2.9645233V70.7003784z M195.9489288,66.2405624h4.2064514
			c1.963501,0,2.7782135,1.3090057,2.7782135,2.6440964c0,1.629425-1.0693207,2.4838791-2.7918854,2.6043472l3.0452423,4.2598572
			h-1.1487885l-3.0179138-4.2201157h-2.1634674v4.2201157h-0.9078522V66.2405624z"/>
		<path fill="#FFFFFF" d="M213.2815857,75.1608047c2.2565918,0,3.2054443-2.189537,3.2054443-4.1667099
			c0-1.9759293-0.9488525-4.1654739-3.2054443-4.1654739c-2.2566071,0-3.2054596,2.1895447-3.2054596,4.1654739
			C210.0761261,72.9712677,211.0249786,75.1608047,213.2815857,75.1608047 M213.2815857,66.0002518
			c2.8179626,0,4.1133118,2.4702148,4.1133118,4.9938431c0,2.5236206-1.2953491,4.9950867-4.1133118,4.9950867
			c-2.8179779,0-4.113327-2.4714661-4.113327-4.9950867C209.1682587,68.4704666,210.4636078,66.0002518,213.2815857,66.0002518"/>
		<path fill="#FFFFFF" d="M231.2687378,72.6636353c0,2.177124-1.388504,3.3246765-3.4985504,3.3246765
			c-2.1100616,0-3.4985504-1.1475525-3.4985504-3.3246765v-6.423317h0.9078674v6.3959961
			c0,1.8567047,1.1612091,2.5248642,2.590683,2.5248642c1.4282227,0,2.590683-0.6681595,2.590683-2.5248642v-6.3959961h0.9078674
			V72.6636353z"/>
		<path fill="#FFFFFF" d="M239.5334778,70.6072311h3.0179291c1.549942,0,2.3236694-0.5737762,2.3236694-1.7759781
			c0-0.5613556-0.0931549-1.7623138-1.9498596-1.7623138h-3.3917389V70.6072311z M238.6256409,66.2405624h4.6870575
			c1.8703766,0,2.4702301,1.3760757,2.4702301,2.5906906c0,1.8554611-1.174881,2.6043549-2.8837891,2.6043549h-3.3656616v4.3132553
			h-0.9078369V66.2405624z"/>
	</g>
</g>
</svg>
