<?xml version="1.0" encoding="utf-8"?>
<!-- Generator: Adobe Illustrator 18.0.0, SVG Export Plug-In . SVG Version: 6.00 Build 0)  -->
<!DOCTYPE svg PUBLIC "-//W3C//DTD SVG 1.1//EN" "http://www.w3.org/Graphics/SVG/1.1/DTD/svg11.dtd">
<svg version="1.1" id="Layer_1" xmlns="http://www.w3.org/2000/svg" xmlns:xlink="http://www.w3.org/1999/xlink" x="0px" y="0px"
	 viewBox="0 0 300 77" enable-background="new 0 0 300 77" xml:space="preserve">
<g>
	<g>
		<path fill="#333333" d="M77.8878937,24.7518005V24.469799c0.8720016-0.1399994,1.5250015-0.3509979,2.6149979-0.7739983
			c4.2140045-1.6189995,5.1590042-5.6310005,5.1590042-10.7000008c0-7.0390015-3.5600052-10.3470001-9.227005-11.1220016V1.3108025
			c1.8160019,0,5.5940018,0.2819977,7.4100037,0.5629959c8.6470032,1.2669983,12.5699997,5.3500061,12.5699997,11.3330002
			c0,5.3510017-3.5599976,8.7999992-8.3550034,10.4890022v0.1409988c3.7050018,6.6170006,8.864006,12.2480011,12.8600006,16.4720001
			c2.1790009,2.6049995,5.6670074,4.6459961,7.9920044,4.9980011v0.5629959
			c-2.0350037,0.1410027-7.2659988,0.1410027-11.0439987,0.1410027c-5.3040009-0.071003-8.3550034-3.0970001-11.552002-7.2509995
			C83.3368912,34.8888016,80.3578949,29.8198013,77.8878937,24.7518005 M72.7288971,36.9297981
			c0,6.0540009,2.5429993,7.5320015,7.3379974,8.1660004v0.5629997H56.1628952v-0.5629997
			c4.5050011-0.6339989,6.1030006-2.322998,6.1030006-8.1660004V10.0397987c0-5.8430023-1.5979996-7.5319977-6.1030006-8.1660004
			V1.3108025h16.5660019V36.9297981z"/>
		<path fill="#333333" d="M156.0672913,30.3837013l-0.1460114,13.5149994
			c-3.2689972,1.0559998-9.4449921,1.9009972-14.9669952,2.2529984v-0.6339989
			c1.1629944-0.1409988,2.3249969-0.493,3.3419952-0.8450012c5.8860016-2.3929977,9.8090057-8.1649971,11.1170044-14.2889977
			H156.0672913z M155.195282,15.5307007c-1.2350006-5.8429985-5.0859985-10.9819984-11.1159973-13.2349968
			c-1.1629944-0.4220047-2.397995-0.7740021-3.7789917-0.9140015V0.7476997
			c6.2489929,0.1409988,11.9160004,1.0559998,15.4029999,2.322998l0.1459961,12.4600029H155.195282z M138.0482941,46.2216988
			c-15.1850052-0.5629997-24.6310043-10.6289978-24.6310043-23.2299995c0-13.7970009,13.151001-21.4699974,23.9039993-22.1739998
			v0.564003c-1.0169983,0.1399994-3.0510101,0.7739944-4.2140045,1.4779968
			c-4.5039978,2.7450027-8.2829971,8.3059998-8.2829971,19.8510017c0,10.0659981,2.6160049,18.3719978,8.7919998,21.4700012
			c1.4530029,0.7739983,2.9790039,1.336998,4.4320068,1.4779968V46.2216988z"/>
		<path fill="#333333" d="M198.570694,1.3110008h13.6600037l0.5809937,14.2899971h-0.6539917
			c-1.2350006-4.6459999-3.5600128-8.4469948-6.7570038-10.6300011c-2.397995-1.6889954-4.4320068-2.6039963-6.8300018-3.0970001
			V1.3110008z M195.8096924,36.9299965c0,5.8429985,1.598999,7.5320015,6.1040039,8.1660004v0.5629997h-22.5970001v-0.5629997
			c4.2870026-0.6339989,6.0309906-2.1119995,6.0309906-8.1660004V1.3110008h10.4620056V36.9299965z M182.5867004,1.8739967
			c-2.3980103,0.4930038-4.3590088,1.4080048-6.7570038,3.0970001c-3.1970062,2.3230057-5.5220032,5.9840012-6.8300018,10.6300011
			h-0.654007l0.5820007-14.2899971h13.6590118V1.8739967z"/>
		<path fill="#333333" d="M230.032196,10.0396996c0-5.8429947-1.5980072-7.5319977-6.1030121-8.1660004V1.3107033h22.5960083
			v0.5629959c-4.2870026,0.6340027-6.0299988,2.1120071-6.0299988,8.1660004v26.8899994
			c0,6.0540009,1.7429962,7.5320015,6.0299988,8.1660004v0.5629997H223.929184v-0.5629997
			c4.5050049-0.6339989,6.1030121-2.322998,6.1030121-8.1660004V10.0396996z"/>
		<path fill="#333333" d="M300.0000916,30.3837013l-0.1459961,13.5149994
			c-3.2690125,1.0559998-9.4450073,1.9009972-14.9670105,2.2529984v-0.6339989
			c1.1629944-0.1409988,2.3250122-0.493,3.3430176-0.8450012c5.8849792-2.3929977,9.8079834-8.1649971,11.1159973-14.2889977
			H300.0000916z M299.1280823,15.5307007c-1.2349854-5.8429985-5.0859985-10.9819984-11.1159973-13.2349968
			c-1.1629944-0.4220047-2.3979797-0.7740021-3.7789917-0.9140015V0.7476997
			c6.2489929,0.1409988,11.9160156,1.0559998,15.4039917,2.322998l0.1450195,12.4600029H299.1280823z M281.9811096,46.2216988
			c-15.1850281-0.5629997-24.6300049-10.6289978-24.6300049-23.2299995c0-13.7970009,13.1499939-21.4699974,23.9029846-22.1739998
			v0.564003c-1.0169983,0.1399994-3.0509949,0.7739944-4.2139893,1.4779968
			c-4.5039978,2.7450027-8.2820129,8.3059998-8.2820129,19.8510017c0,10.0659981,2.6150208,18.3719978,8.7910156,21.4700012
			c1.4530029,0.7739983,2.9790039,1.336998,4.4320068,1.4779968V46.2216988z"/>
		<path fill="#333333" d="M12.7340002,38.3325005c0-0.4699974,0.0379992-0.9319992,0.1119995-1.382
			c0,0,0.2620001-3.572998,2.5869999-5.7769966c2.3249998-2.2030029,3.9199991-4.3580017,3.9199991-7.3450012V13.6555023
			c-4.0479984,9.9459991-9.0239992,22.1010017-9.0869989,22.2560005c-1.0170002,2.3019981-2.0389996,4.1100006-3.9449997,6.0159988
			C4.4320002,43.8285027,2.6160002,44.7434998,0,45.1655006v0.5639992h10.5009995h2.2360001
			C12.7369995,44.7415009,12.7340002,38.4055023,12.7340002,38.3325005"/>
		<path fill="#333333" d="M41.1251984,37.0001984L26.6671982,0.8882027H24.485199
			c0,0.1179962-2.2849998,5.7689972-5.0230007,12.4959984h2.3390007h2.4489994v10.4440002
			c0,2.9869995,1.5939999,5.1419983,3.9189987,7.3449974c2.3260002,2.2040024,2.5880013,5.7770004,2.5880013,5.7770004
			c0.073,0.4500008,0.1110001,0.9120026,0.1110001,1.382c0,0.0730019-0.0030003,6.4090004-0.0030003,7.3969994h4.3799992h14.2360001
			v-0.5629997C46.138195,44.6731987,43.4501953,42.4911995,41.1251984,37.0001984"/>
		<path fill="#333333" d="M61.9536972,74.9344025h3.3799973c1.5950012,0,2.227005-0.9050064,2.227005-1.8110046
			c0-1.197998-0.9070053-2.0240021-2.5559998-2.0240021h-3.0510025V74.9344025z M61.9536972,70.2743988h2.9960022
			c1.4289932,0,2.2539978-0.5589981,2.2539978-1.5979996c0-1.1719971-0.715004-1.5719986-2.1720047-1.5719986h-3.0779953V70.2743988
			z M61.0186996,66.2793961h4.2059937c2.5830002,0,2.913002,1.6910019,2.913002,2.2240067
			c0,1.237999-0.5500031,1.8899994-1.7859955,2.1169968v0.026001c1.4429932,0.1339951,2.1439972,1.2259979,2.1439972,2.4769974
			c0,1.3720016-0.9349976,2.637001-3.1750031,2.637001h-4.3019943V66.2793961z"/>
	</g>
	<polygon fill="#333333" points="75.4208984,66.2797012 75.4208984,75.7606964 82.1138916,75.7606964 82.1138916,74.9337006 
		76.355896,74.9337006 76.355896,71.2866974 81.2898941,71.2866974 81.2898941,70.4597015 76.355896,70.4597015 
		76.355896,67.1046982 81.8258972,67.1046982 81.8258972,66.2797012 	"/>
	<polygon fill="#333333" points="95.3630981,66.2797012 92.2430954,74.321701 89.178093,66.2797012 88.1750946,66.2797012 
		91.8300934,75.7606964 92.655098,75.7606964 96.3240967,66.2797012 	"/>
	<polygon fill="#333333" points="102.7143021,66.2797012 102.7143021,75.7606964 109.4072952,75.7606964 109.4072952,74.9337006 
		103.6492996,74.9337006 103.6492996,71.2866974 108.5832977,71.2866974 108.5832977,70.4597015 103.6492996,70.4597015 
		103.6492996,67.1046982 109.1193008,67.1046982 109.1193008,66.2797012 	"/>
	<g>
		<path fill="#333333" d="M117.2963943,70.7264023h2.8990021c1.9789963,0,2.4189987-0.9720001,2.4189987-1.8110046
			c0-1.1049957-0.6040039-1.810997-2.2669983-1.810997h-3.0510025V70.7264023z M116.3613968,66.2793961h4.3289948
			c2.0210037,0,2.8590012,1.3050003,2.8590012,2.6360016c0,1.625-1.0999985,2.4769974-2.8730011,2.5970001l3.1340027,4.2480011
			h-1.1819992l-3.1060028-4.2080002h-2.2259979v4.2080002h-0.9349976V66.2793961z"/>
	</g>
	<path fill="#333333" d="M133.6082001,67.4906998l1.8150024,4.673996h-3.6840057L133.6082001,67.4906998z M133.2792053,66.2797012
		l-3.9860077,9.4809952h0.9620056l1.1679993-2.8509979h4.302002l1.0999908,2.8509979h1.003006l-3.7929993-9.4809952H133.2792053z"/>
	<g>
		<path fill="#333333" d="M151.0765076,68.8889999c-0.4810028-1.4110031-1.3190002-2.0240021-2.7350006-2.0240021
			c-2.4880066,0-3.5460052,2.1839981-3.5460052,4.1549988s0.9759979,4.1539993,3.2980042,4.1539993
			c2.144989,0,2.9549866-1.651001,2.9549866-3.048996v-0.5190048h-3.6279907v-0.8259964h4.4530029v4.9799957h-0.8250122v-1.371994
			h-0.0269928C150.5545044,75.5469971,149.3034973,76,148.0935059,76c-2.8580017,0-4.2330017-2.2369995-4.2330017-4.9800034
			c0-2.5699997,1.3880005-4.9799957,4.4120026-4.9799957c1.8559875,0,2.9829865,0.784996,3.696991,2.3829956L151.0765076,68.8889999
			z"/>
	</g>
	<polygon fill="#333333" points="159.0605927,66.2797012 159.0605927,75.7606964 165.7535858,75.7606964 165.7535858,74.9337006 
		159.9945831,74.9337006 159.9945831,71.2866974 164.9295807,71.2866974 164.9295807,70.4597015 159.9945831,70.4597015 
		159.9945831,67.1046982 165.4645844,67.1046982 165.4645844,66.2797012 	"/>
	<g>
		<path fill="#333333" d="M188.9519043,68.8889999c-0.4810028-1.4110031-1.3190002-2.0240021-2.7350006-2.0240021
			c-2.4880066,0-3.5460052,2.1839981-3.5460052,4.1549988s0.9759979,4.1539993,3.298996,4.1539993
			c2.1439972,0,2.9539948-1.651001,2.9539948-3.048996v-0.5190048h-3.6279907v-0.8259964h4.4530029v4.9799957h-0.8250122v-1.371994
			h-0.0269928C188.4299011,75.5469971,187.178894,76,185.9698944,76c-2.8589935,0-4.2339935-2.2369995-4.2339935-4.9800034
			c0-2.5699997,1.3889923-4.9799957,4.4120026-4.9799957c1.8559875,0,2.9829865,0.784996,3.696991,2.3829956L188.9519043,68.8889999
			z"/>
		<path fill="#333333" d="M197.8712006,70.7264023h2.8999939c1.9790039,0,2.4179993-0.9720001,2.4179993-1.8110046
			c0-1.1049957-0.6040039-1.810997-2.2669983-1.810997h-3.0509949V70.7264023z M196.936203,66.2793961h4.3289948
			c2.0209961,0,2.8589935,1.3050003,2.8589935,2.6360016c0,1.625-1.0999908,2.4769974-2.8730011,2.5970001l3.1340027,4.2480011
			h-1.1819916l-3.1060028-4.2080002h-2.2259979v4.2080002h-0.9349976V66.2793961z"/>
		<path fill="#333333" d="M214.7747955,75.1745987c2.322998,0,3.298996-2.1839981,3.298996-4.1549988
			s-0.9759979-4.1539993-3.298996-4.1539993c-2.3230133,0-3.2990112,2.1829987-3.2990112,4.1539993
			S212.4517822,75.1745987,214.7747955,75.1745987 M214.7747955,66.0395966c2.8999939,0,4.2329865,2.4640045,4.2329865,4.9800034
			c0,2.5169983-1.3329926,4.9799957-4.2329865,4.9799957c-2.9000092,0-4.2330017-2.4629974-4.2330017-4.9799957
			C210.5417938,68.5036011,211.8747864,66.0395966,214.7747955,66.0395966"/>
		<path fill="#333333" d="M233.2868958,72.6839981c0,2.1699982-1.4290009,3.3160019-3.6010132,3.3160019
			c-2.17099,0-3.6009979-1.1460037-3.6009979-3.3160019v-6.4049988h0.9349976v6.3779984
			c0,1.8509979,1.1959991,2.5169983,2.6660004,2.5169983c1.4710083,0,2.6660004-0.6660004,2.6660004-2.5169983v-6.3779984h0.9350128
			V72.6839981z"/>
		<path fill="#333333" d="M241.7935028,70.6334h3.1059875c1.5940094,0,2.3910065-0.5719986,2.3910065-1.7710037
			c0-0.5589981-0.095993-1.7579956-2.0059967-1.7579956h-3.4909973V70.6334z M240.8585052,66.2793961h4.8239899
			c1.923996,0,2.5429993,1.3720016,2.5429993,2.5830002c0,1.8510056-1.2099915,2.5970001-2.9689941,2.5970001h-3.4629974v4.3010025
			h-0.9349976V66.2793961z"/>
	</g>
</g>
</svg>
