<?xml version="1.0" encoding="utf-8"?>
<!-- Generator: Adobe Illustrator 18.0.0, SVG Export Plug-In . SVG Version: 6.00 Build 0)  -->
<!DOCTYPE svg PUBLIC "-//W3C//DTD SVG 1.1//EN" "http://www.w3.org/Graphics/SVG/1.1/DTD/svg11.dtd">
<svg version="1.1" id="Layer_1" xmlns="http://www.w3.org/2000/svg" xmlns:xlink="http://www.w3.org/1999/xlink" x="0px" y="0px"
	 viewBox="0 0 40 40" enable-background="new 0 0 40 40" xml:space="preserve">
<g>
	<path fill="#333333" d="M0,0v40h40V0H0z M17,19c0,1.9003906-0.9425049,3.6020508-2.4217529,5.0036621
		c-1.479187,1.4022827-1.645874,3.6754761-1.645874,3.6754761c-0.0471191,0.2863159-0.0712891,0.5802612-0.0712891,0.8792725
		c0,0.0464478,0.0018921,4.0775757,0.0018921,4.7061768h-1.4225464H4.7593994v-0.3588257
		c1.6643677-0.2684937,2.8197632-0.850647,4.0216064-2.0601196c1.2126465-1.2126465,1.862854-2.362915,2.5098877-3.8275146
		C11.3309937,26.9194946,14.4245605,19.3278809,17,13V19z M36.2406006,33.2644043h-9.057312h-2.7866821
		c0-0.6286011,0.0019531-4.659729,0.0019531-4.7061768c0-0.2990112-0.0241699-0.5929565-0.0706177-0.8792725
		c0,0-0.166748-2.2732544-1.6466064-3.6754761c-1.479187-1.4016113-2.4933472-2.772644-2.4933472-4.6730957v-6.6447144h-3.0462646
		c1.7420044-4.2799072,3.1958008-7.8751831,3.1958008-7.9502563h1.3882446l9.1985474,22.9753418
		c1.479187,3.4935303,3.1893921,4.8817749,5.3162842,5.1954346V33.2644043z"/>
</g>
</svg>
