<?xml version="1.0" encoding="utf-8"?>
<!-- Generator: Adobe Illustrator 18.0.0, SVG Export Plug-In . SVG Version: 6.00 Build 0)  -->
<!DOCTYPE svg PUBLIC "-//W3C//DTD SVG 1.1//EN" "http://www.w3.org/Graphics/SVG/1.1/DTD/svg11.dtd">
<svg version="1.1" id="Layer_1" xmlns="http://www.w3.org/2000/svg" xmlns:xlink="http://www.w3.org/1999/xlink" x="0px" y="0px"
	 viewBox="0 0 40 40" enable-background="new 0 0 40 40" xml:space="preserve">
<g>
	<path fill="#333333" d="M12.8610983,28.5584278c0-0.2990246,0.0241766-0.5929623,0.0712576-0.8792648
		c0,0,0.1666908-2.2732315,1.645915-3.6754723c1.4792242-1.4016056,2.421731-3.1032848,2.421731-5.0036907v-6
		c-2.5754395,6.327898-5.6690264,13.9195137-5.7091084,14.0181274c-0.6470413,1.4645901-1.2972631,2.6148872-2.5099087,3.8275318
		c-1.2018299,1.2094631-2.3572154,1.7916088-4.0215812,2.0600986v0.3588295h6.6810031h1.4225998
		C12.8630066,32.6359978,12.8610983,28.6048737,12.8610983,28.5584278"/>
	<path fill="#333333" d="M30.9243011,27.710783L21.7257538,4.7354121h-1.3882427
		c0,0.0750723-1.4537754,3.670383-3.1957607,7.9502721h3.0462475v6.6447392c0,1.900404,1.014143,3.2714691,2.4933662,4.6730747
		c1.4798603,1.4022427,1.6465511,3.6754742,1.6465511,3.6754742c0.0464458,0.2863026,0.0706215,0.5802383,0.0706215,0.8792629
		c0,0.0464458-0.0019093,4.0775681-0.0019093,4.7061615h2.7866669h9.0573063v-0.3581963
		C34.1136971,32.5925407,32.4035225,31.204298,30.9243011,27.710783"/>
</g>
</svg>
