<?xml version="1.0" encoding="utf-8"?>
<!-- Generator: Adobe Illustrator 18.0.0, SVG Export Plug-In . SVG Version: 6.00 Build 0)  -->
<!DOCTYPE svg PUBLIC "-//W3C//DTD SVG 1.1//EN" "http://www.w3.org/Graphics/SVG/1.1/DTD/svg11.dtd">
<svg version="1.1" id="Layer_1" xmlns="http://www.w3.org/2000/svg" xmlns:xlink="http://www.w3.org/1999/xlink" x="0px" y="0px"
	 viewBox="0 0 18 17" enable-background="new 0 0 18 17" xml:space="preserve">
<g>
	<path fill="#FFFFFF" d="M2.9159982,0.3540002c-1.1720048,0-1.9390031,0.7710009-1.9390031,1.7829999
		c0,0.9900007,0.7439957,1.783,1.8939973,1.783H2.893995c1.1959989,0,1.9400022-0.7929993,1.9400022-1.783
		C4.8129935,1.1250011,4.089994,0.3540002,2.9159982,0.3540002"/>
	<rect x="1.1790009" y="5.329" fill="#FFFFFF" width="3.4309998" height="10.3170004"/>
	<path fill="#FFFFFF" d="M13.0269985,5.0880003c-1.8200073,0-2.6340027,0.9980001-3.0910034,1.7030001v0.033H9.9129925
		c0.0080032-0.0099993,0.0170059-0.0209999,0.0230026-0.033V5.3300009H6.5069938c0.0439987,0.967,0,10.315999,0,10.315999h3.4290013
		V9.8850002c0-0.3109999,0.0220032-0.6149998,0.112999-0.8359995c0.2480011-0.6149998,0.8130035-1.2560005,1.7600021-1.2560005
		c1.2419968,0,1.737999,0.9470005,1.737999,2.3340006v5.5189991h3.4300003V9.7300005
		C16.9769955,6.5610008,15.2829952,5.0880003,13.0269985,5.0880003"/>
	<path fill="#FFFFFF" d="M9.9360027,6.8240004v-0.033c-0.0060043,0.0120001-0.015007,0.0230007-0.0230026,0.033H9.9360027z"/>
</g>
</svg>
