<?xml version="1.0" encoding="utf-8"?>
<!-- Generator: Adobe Illustrator 18.0.0, SVG Export Plug-In . SVG Version: 6.00 Build 0)  -->
<!DOCTYPE svg PUBLIC "-//W3C//DTD SVG 1.1//EN" "http://www.w3.org/Graphics/SVG/1.1/DTD/svg11.dtd">
<svg version="1.1" id="Layer_1" xmlns="http://www.w3.org/2000/svg" xmlns:xlink="http://www.w3.org/1999/xlink" x="0px" y="0px"
	 viewBox="0 0 128 28" enable-background="new 0 0 128 28" xml:space="preserve">
<g>
	<g>
		<path fill="#333333" d="M30.0170002,0.3282013v0.3270016c-1.5970001,0.1639996-2.9080009,0.8190002-3.8080006,2.0479984
			C25.309,3.8502026,24.7349987,6.4712029,24.7349987,7.9042015h-0.4099998c0-1.4329987-0.6140003-3.9729996-1.473999-5.1189995
			c-1.0640011-1.3509998-2.7840004-2.0060005-4.2180004-2.1299992V0.3282013H30.0170002z M0.4499998,26.1272011V25.799202
			c1.5570002-0.1630001,2.868-0.8190002,3.8080001-2.0470009c0.8599997-1.1459999,1.4769998-3.9319992,1.4769998-5.3639984
			h0.4070001c0,1.4319992,0.6170001,4.1359978,1.474,5.2819996c1.027,1.3519993,2.744,2.007,4.2179999,2.1289997v0.3279991
			H0.4499998z M5.6919999,4.5052013c-0.6140003-0.7779999-1.3910003-1.802-2.414-2.5389996
			C2.3739998,1.2712021,1.27,0.8192024,0,0.6552029V0.3282013h10.1969995l14.5379992,18.5499992v7.3310013h-2.1309986
			L5.6919999,4.5052013z"/>
		<path fill="#333333" d="M47.3989983,25.7991009c2.2109985-0.2449989,4.3019981-0.9400005,5.9389992-2.0059986
			c2.4980011-1.6389999,3.6450005-3.9309998,4.6279984-7.0839996h0.3269997l-0.3699989,9.4179993H47.3989983V25.7991009z
			 M53.2149963,7.618103h0.3260002v11.0149994h-0.3260002c-0.8600006-3.6860008-2.1310005-4.9550009-5.8159981-5.3650007V12.941102
			C51.0839958,12.573102,52.3549957,11.3021021,53.2149963,7.618103 M52.8879967,2.4161034
			c-1.1870003-0.7370014-3.644001-1.4740009-5.6119995-1.7609997V0.3291035h10.0740013l0.2459984,8.2709999h-0.3269997
			C56.2059975,4.9971027,55.1389961,3.8081036,52.8879967,2.4161034 M35.8089981,25.7991009
			c2.5409966-0.368,3.4409981-1.3500004,3.4409981-4.75V5.4061031c0-3.3990002-0.9000015-4.382-3.4409981-4.7509995V0.3291035
			h9.3400002v25.7979984h-9.3400002V25.7991009z"/>
		<path fill="#333333" d="M104.9953918,0.3287029v0.3269997c-1.6799927,0.2869987-2.9909973,0.9829998-4.1349945,2.1289997
			c-1.1900024,1.2290001-2.090004,2.8669987-2.9900055,5.0380001L97.543396,7.6577015
			c0.2860031-1.0240002,0.6969986-3.316,0.6969986-4.3809986c0-1.7610016-1.3939972-2.4580002-3.0739975-2.6210003V0.3287029
			H104.9953918z M93.8153915,19.2887001l-2.6609955,7.0440006h-1.064003L82.9213943,5.078701
			c-1.0240021-3.0709991-1.9639969-4.1779995-4.0110016-4.4229984V0.3287029H91.604393v0.3269997
			c-1.637001,0.1229992-2.4970016,0.8190002-2.4970016,2.1709995c0,0.612999,0.2460022,1.7199993,0.6970062,3.1519985
			L93.8153915,19.2887001z M79.4003983,19.2887001l-2.701004,7.0440006h-1.0230026L68.6733932,5.5707016
			c-1.1910019-3.441-2.4570007-4.6700001-4.6279984-4.914999V0.3287029h12.9410019v0.3269997
			c-1.5569992,0.1229992-2.3779984,0.7369995-2.3779984,2.1289997c0,0.6549988,0.3299942,1.7209988,0.7809982,3.1939983
			L79.4003983,19.2887001z"/>
		<path fill="#333333" d="M125.8225021,7.4526005c-1.0230026-3.3979988-2.7840042-6.4689999-6.102005-7.0839996v-0.368
			c1.5569992,0,4.8320007,0.5319996,6.1420059,0.9829998l0.3269958,6.4689999H125.8225021z M118.2874985,26.4146004v-0.3689995
			c2.3740005-0.2049999,4.2580032-1.7199993,4.2580032-4.6679993c0-2.6630001-2.1710052-3.9729996-5.8960037-5.9790001
			c-3.3180008-1.8439999-6.5919952-4.0539999-6.5919952-8.1090012c0-4.5859985,4.1749954-6.9609985,8.0659943-7.2469997v0.368
			c-2.0469971,0.2049999-3.2350006,1.5150013-3.2350006,3.9309998c0,2.9890003,2.538002,4.177,6.0190048,6.1020012
			c3.3580017,1.9239998,6.5930023,3.6449995,6.5930023,8.1079998
			C127.5005035,23.9566021,122.9154968,26.1696014,118.2874985,26.4146004 M110.0575027,25.1456013l-0.4500046-7.9039993h0.3670044
			c0.9429932,4.0129986,3.9309998,8.1889992,6.7549973,8.8439999v0.3699989
			C114.1084976,26.2506008,111.1214981,25.635601,110.0575027,25.1456013"/>
	</g>
</g>
</svg>
