<?xml version="1.0" encoding="utf-8"?>
<!-- Generator: Adobe Illustrator 18.0.0, SVG Export Plug-In . SVG Version: 6.00 Build 0)  -->
<!DOCTYPE svg PUBLIC "-//W3C//DTD SVG 1.1//EN" "http://www.w3.org/Graphics/SVG/1.1/DTD/svg11.dtd">
<svg version="1.1" id="Layer_1" xmlns="http://www.w3.org/2000/svg" xmlns:xlink="http://www.w3.org/1999/xlink" x="0px" y="0px"
	 viewBox="0 0 14 17" enable-background="new 0 0 14 17" xml:space="preserve">
<g>
	<path fill="#C27622" d="M7.1820068,0C2.8150024,0,0.6130066,3.1310005,0.6130066,5.7399998
		c0,1.5820007,0.5979919,2.9890003,1.8819885,3.5120001c0.2100067,0.0860004,0.4000092,0.0039997,0.4600067-0.2309999
		c0.0429993-0.1599998,0.1429901-0.5679998,0.1880035-0.7360001c0.0609894-0.2299995,0.0379944-0.3119993-0.1320038-0.5139999
		c-0.3699951-0.4349995-0.6069946-1-0.6069946-1.7999992c0-2.323,1.7379913-4.4029999,4.5249939-4.4029999
		c2.4680023,0,3.8240051,1.5079994,3.8240051,3.5219994c0,2.6499996-1.1730042,4.8870001-2.9140015,4.8870001
		c-0.9620056,0-1.6809998-0.7950001-1.4500122-1.7700005c0.276001-1.1639996,0.8100128-2.4219999,0.8100128-3.2619991
		c0-0.7520008-0.4020081-1.3790007-1.2380066-1.3790007c-0.9830017,0-1.772995,1.0159998-1.772995,2.3790007
		c0,0.868,0.2939911,1.4529991,0.2939911,1.4529991s-1.0059967,4.2620001-1.1829987,5.0080004
		c-0.3519897,1.4869995-0.0529938,3.309-0.0269928,3.4919996c0.0139923,0.1099997,0.1549988,0.1350012,0.2180023,0.0530005
		c0.0899963-0.1170006,1.2609863-1.5620003,1.6599884-3.0080004c0.1119995-0.408,0.6460114-2.5249996,0.6460114-2.5249996
		c0.3190002,0.6090002,1.2529907,1.1449995,2.2449951,1.1449995C10.9949951,11.5629997,13,8.8690004,13,5.2659998
		C13,2.5390005,10.6909943,0,7.1820068,0"/>
</g>
</svg>
