<?xml version="1.0" encoding="utf-8"?>
<!-- Generator: Adobe Illustrator 18.0.0, SVG Export Plug-In . SVG Version: 6.00 Build 0)  -->
<!DOCTYPE svg PUBLIC "-//W3C//DTD SVG 1.1//EN" "http://www.w3.org/Graphics/SVG/1.1/DTD/svg11.dtd">
<svg version="1.1" id="Layer_1" xmlns="http://www.w3.org/2000/svg" xmlns:xlink="http://www.w3.org/1999/xlink" x="0px" y="0px"
	 viewBox="0 0 18 17" enable-background="new 0 0 18 17" xml:space="preserve">
<g>
	<path fill="#FFFFFF" d="M16.7034397,2.2528749c-0.6746883,0.4005632-1.4216261,0.6916876-2.2153149,0.8468134
		C13.8516884,2.4228756,12.944313,2,11.9423752,2c-1.9263124,0-3.4881849,1.5608122-3.4881849,3.4860625
		c0,0.2741256,0.0308123,0.5397506,0.090312,0.7947502C5.6460013,6.136313,3.0747533,4.7476254,1.3556281,2.6375003
		C1.0560015,3.1517506,0.8838779,3.7510006,0.8838779,4.390625c0,1.2101874,0.615186,2.2790627,1.5512491,2.9027505
		C1.8634998,7.2753124,1.3258783,7.1191249,0.8551899,6.8577504v0.0435619c0,1.6893754,1.2027501,3.0982499,2.7965002,3.4201875
		c-0.2911272,0.0786257-0.5992491,0.1221876-0.9180024,0.1221876c-0.2252479,0-0.4430623-0.0223122-0.6555631-0.0616255
		c0.4430664,1.3833752,1.7318761,2.3927507,3.2565651,2.4214382c-1.1931887,0.9360619-2.6955652,1.4917498-4.3307505,1.4917498
		c-0.2804999,0-0.5578141-0.0159378-0.8319385-0.0478134c1.5438116,0.9902506,3.3766265,1.5671883,5.3465014,1.5671883
		c6.4153728,0,9.9237499-5.3146248,9.9237499-9.923749c0-0.1508756-0.0031891-0.3006878-0.0106268-0.450501
		c0.682127-0.4919367,1.2739391-1.1060619,1.7403755-1.8051867c-0.624752,0.2762501-1.2973137,0.4653745-2.0028105,0.5482497
		C15.8895626,3.7510006,16.4420624,3.0688756,16.7034397,2.2528749"/>
</g>
</svg>
